<svg xmlns="http://www.w3.org/2000/svg" width="21.879" height="15.098" viewBox="0 0 21.879 15.098"><defs><style>.a{fill:#fff;}</style></defs><g transform="translate(-4.4 -18.5)"><g transform="translate(4.4 18.5)"><g transform="translate(7.309 0)"><path class="a" d="M38.519,25.737a3.619,3.619,0,1,1,3.619-3.619A3.631,3.631,0,0,1,38.519,25.737Zm0-6.039a2.42,2.42,0,1,0,2.42,2.42A2.414,2.414,0,0,0,38.519,19.7Z" transform="translate(-34.9 -18.5)"/></g><g transform="translate(0 2.301)"><g transform="translate(15.29)"><path class="a" d="M70.812,33.324a2.612,2.612,0,1,1,2.612-2.612A2.618,2.618,0,0,1,70.812,33.324Zm0-4.026a1.414,1.414,0,1,0,1.414,1.414A1.4,1.4,0,0,0,70.812,29.3Z" transform="translate(-68.2 -28.1)"/></g><g transform="translate(1.342)"><path class="a" d="M12.612,33.324a2.612,2.612,0,1,1,2.612-2.612A2.618,2.618,0,0,1,12.612,33.324Zm0-4.026a1.414,1.414,0,1,0,1.414,1.414A1.4,1.4,0,0,0,12.612,29.3Z" transform="translate(-10 -28.1)"/></g><g transform="translate(0 4.05)"><g transform="translate(14.259)"><path class="a" d="M67.567,51.471a14.238,14.238,0,0,1-2.085-.12l-.5-.1v-.6a5.024,5.024,0,0,0-.887-2.78l-.192-.288.168-.312A3.985,3.985,0,0,1,67.543,45a4.175,4.175,0,0,1,3.978,4.194C71.521,51.471,69.412,51.471,67.567,51.471Zm-1.414-1.246c.359.024.815.048,1.414.048,2.42,0,2.756-.24,2.756-1.078a3.011,3.011,0,0,0-2.78-3,2.73,2.73,0,0,0-2.253,1.318A6.2,6.2,0,0,1,66.153,50.224Z" transform="translate(-63.9 -45)"/></g><path class="a" d="M8.354,51.471c-1.845,0-3.954,0-3.954-2.277A4.139,4.139,0,0,1,8.354,45a3.957,3.957,0,0,1,3.475,2.277l.168.312-.192.288a4.758,4.758,0,0,0-.863,2.756v.6l-.5.1A11.022,11.022,0,0,1,8.354,51.471Zm0-5.272a2.957,2.957,0,0,0-2.756,3c0,.839.336,1.078,2.756,1.078.6,0,1.03-.024,1.39-.048a5.715,5.715,0,0,1,.863-2.708A2.73,2.73,0,0,0,8.354,46.2Z" transform="translate(-4.4 -45)"/></g></g><g transform="translate(5.32 6.039)"><path class="a" d="M32.208,52.759c-2.756,0-5.608,0-5.608-3.091A5.871,5.871,0,0,1,32.208,43.7a5.871,5.871,0,0,1,5.608,5.967C37.816,52.759,34.964,52.759,32.208,52.759Zm0-7.861a4.721,4.721,0,0,0-4.41,4.769c0,1.534.815,1.893,4.41,1.893s4.41-.359,4.41-1.893A4.721,4.721,0,0,0,32.208,44.9Z" transform="translate(-26.6 -43.7)"/></g></g></g></svg>