<svg xmlns="http://www.w3.org/2000/svg" width="22.559" height="16.322" viewBox="0 0 22.559 16.322"><defs><style>.a{fill:#fff;stroke:#fff;stroke-width:0.1px;}</style></defs><g transform="translate(-0.055 -5.63)"><path class="a" d="M22.123,10.09,11.515,5.727a.529.529,0,0,0-.424,0L.482,10.09a.624.624,0,0,0-.377.55.632.632,0,0,0,.321.588l3.813,2.014v5.219a2.43,2.43,0,0,0,1.186,1.974A10.908,10.908,0,0,0,11.334,21.9a10.908,10.908,0,0,0,5.909-1.468,2.43,2.43,0,0,0,1.186-1.974V13.242l1.179-.658v6.16a.615.615,0,0,0,1.186,0V11.992l1.448-.763a.632.632,0,0,0,.321-.588.624.624,0,0,0-.377-.55Zm-20.037.658,9.185-3.777,9.185,3.771L12.245,15.1l-.973.48L10.3,15.1Zm15.095,5.765v1.974c0,.915-2.246,2.185-5.909,2.185s-5.909-1.3-5.909-2.211V13.854l2.845,1.507,1.816.967.955.507a.536.536,0,0,0,.537,0l1-.507,1.841-.961,2.845-1.507Z" transform="translate(0 0)"/></g></svg>