<svg xmlns="http://www.w3.org/2000/svg" width="28" height="28" viewBox="0 0 28 28"><defs><style>.a{fill:#343a40;}</style></defs><g transform="translate(-36.95 -25.95)"><g transform="translate(27 16)"><g transform="translate(9.95 9.95)"><path class="a" d="M21.475,31.969a3.867,3.867,0,0,0-.332.385,3.4,3.4,0,0,0-.682,2.1,3.487,3.487,0,0,0,5.964,2.466,3.478,3.478,0,0,0,.332-4.565,3.466,3.466,0,0,0-2.8-1.4,3.415,3.415,0,0,0-2.483,1.014m-5.212.367q-.157-.192-.35-.385a3.357,3.357,0,0,0-2.466-1.014,3.415,3.415,0,0,0-2.483,1.014q-.175.192-.332.385a3.4,3.4,0,0,0-.682,2.1,3.493,3.493,0,0,0,3.5,3.5,3.523,3.523,0,0,0,3.5-3.5,3.4,3.4,0,0,0-.682-2.1M13.448,20.443a3.464,3.464,0,0,0-3.5,3.5,3.493,3.493,0,0,0,3.5,3.5,3.523,3.523,0,0,0,3.5-3.5,3.493,3.493,0,0,0-3.5-3.5m3.5-7a3.493,3.493,0,0,0-3.5-3.5,3.464,3.464,0,0,0-3.5,3.5,3.493,3.493,0,0,0,3.5,3.5,3.523,3.523,0,0,0,3.5-3.5m7.013,7.013a3.464,3.464,0,0,0-3.5,3.5,3.487,3.487,0,0,0,5.964,2.466,3.328,3.328,0,0,0,1.032-2.466,3.493,3.493,0,0,0-3.5-3.5m3.5-7a3.5,3.5,0,1,0-7,0,3.487,3.487,0,0,0,5.964,2.466,3.328,3.328,0,0,0,1.032-2.466m9.462,23.453a3.328,3.328,0,0,0,1.032-2.466,3.5,3.5,0,1,0-3.5,3.5,3.328,3.328,0,0,0,2.466-1.032m0-10.493a3.328,3.328,0,0,0,1.032-2.466,3.5,3.5,0,1,0-3.5,3.5,3.328,3.328,0,0,0,2.466-1.032M37.95,13.465a3.5,3.5,0,1,0-5.981,2.466,3.386,3.386,0,0,0,2.483,1.032,3.523,3.523,0,0,0,3.5-3.5Z" transform="translate(-9.95 -9.95)"/></g></g></g></svg>