<svg xmlns="http://www.w3.org/2000/svg" width="28" height="28" viewBox="0 0 28 28"><defs><style>.a{fill:#343a40;}</style></defs><g transform="translate(271 -388)"><g transform="translate(-271 388)"><path class="a" d="M-275,377a14.041,14.041,0,0,0-14,14,14.041,14.041,0,0,0,14,14,14.041,14.041,0,0,0,14-14A14.041,14.041,0,0,0-275,377Zm0,25.375A11.352,11.352,0,0,1-286.375,391,11.352,11.352,0,0,1-275,379.625,11.352,11.352,0,0,1-263.625,391,11.352,11.352,0,0,1-275,402.375Z" transform="translate(289 -377)"/><circle class="a" cx="1.75" cy="1.75" r="1.75" transform="translate(12.25 19.25)"/><path class="a" d="M-273.687,383.5a4.855,4.855,0,0,0-4.812,4.813h2.625a2.166,2.166,0,0,1,2.188-2.187,2.166,2.166,0,0,1,2.188,2.188c0,.962-.437,1.4-1.312,2.188A5.566,5.566,0,0,0-275,394.875h2.625c0-1.138.438-1.575,1.4-2.45a5.24,5.24,0,0,0,2.1-4.113h0A4.855,4.855,0,0,0-273.687,383.5Z" transform="translate(287.688 -377.813)"/></g></g></svg>