<svg xmlns="http://www.w3.org/2000/svg" width="20.2" height="20.2" viewBox="0 0 20.2 20.2"><defs><style>.a{fill:#fff;stroke:#fff;stroke-width:0.2px;}</style></defs><g transform="translate(-7.01 -7.03)"><path class="a" d="M17.112,7.13a10,10,0,1,0,10,10A10,10,0,0,0,17.112,7.13Zm0,18.6a8.6,8.6,0,1,1,8.6-8.6,8.6,8.6,0,0,1-8.6,8.6Z" transform="translate(0)"/><path class="a" d="M46.412,26.868V21.706a.711.711,0,0,0-1.412,0v5.406a.589.589,0,0,0,.186.417l3.125,3.033a.774.774,0,0,0,.946,0,.576.576,0,0,0,.1-.834Z" transform="translate(-29.076 -9.496)"/></g></svg>