<svg xmlns="http://www.w3.org/2000/svg" width="15" height="16" viewBox="0 0 15 16"><defs><style>.a{fill:#fff;}</style></defs><g transform="translate(-6 -4.25)"><path class="a" d="M8.045,20.25H18.955A2.072,2.072,0,0,0,21,18.152V8.01a2.072,2.072,0,0,0-2.045-2.1H17.591V4.949a.682.682,0,1,0-1.364,0v.962H10.773V4.949a.682.682,0,1,0-1.364,0v.962H8.045A2.072,2.072,0,0,0,6,8.01V18.152A2.072,2.072,0,0,0,8.045,20.25Zm10.909-1.4H8.045a.691.691,0,0,1-.682-.7v-5.77H19.636v5.77A.691.691,0,0,1,18.955,18.851ZM8.045,7.31H9.409V8.1a.682.682,0,1,0,1.364,0V7.31h5.455V8.1a.682.682,0,1,0,1.364,0V7.31h1.364a.691.691,0,0,1,.682.7v2.973H7.364V8.01A.691.691,0,0,1,8.045,7.31Z" transform="translate(0 0)"/></g></svg>