<svg xmlns="http://www.w3.org/2000/svg" width="18.884" height="18.21" viewBox="0 0 18.884 18.21"><defs><style>.a{fill:#fff;}</style></defs><g transform="translate(-1.764 -3.186)"><path class="a" d="M17.983,3.248a.585.585,0,0,0-.613.057L11.816,7.481H6.585A2.927,2.927,0,0,0,3.9,9.237H3.391a1.684,1.684,0,0,0,0,3.367h.441A2.927,2.927,0,0,0,5.783,14.44v4.945a2.075,2.075,0,0,0,4.147,0v-4.83h1.887l5.552,4.176a.585.585,0,0,0,.937-.468V13.384a2.461,2.461,0,0,0,0-4.916V3.784A.585.585,0,0,0,17.983,3.248ZM2.877,10.919a.511.511,0,0,1,.511-.511h.269v1.025H3.391a.513.513,0,0,1-.513-.513Zm1.952.708v-1.22A1.756,1.756,0,0,1,6.585,8.652h4.84v4.733H6.585A1.756,1.756,0,0,1,4.829,11.628Zm3.929,7.758a.9.9,0,0,1-1.805,0v-4.83H8.758Zm8.378-2.3L12.6,13.677V8.357L14.38,7.018v3.9a.585.585,0,1,0,1.171,0V6.138l1.587-1.192Zm2.342-6.169a1.294,1.294,0,0,1-1.171,1.286V9.633a1.294,1.294,0,0,1,1.171,1.288Z"/></g></svg>