<svg xmlns="http://www.w3.org/2000/svg" width="25.111" height="28.25" viewBox="0 0 25.111 28.25"><defs><style>.a{fill:#343a40;}</style></defs><g transform="translate(-24 -21.5)"><g transform="translate(24 21.5)"><path class="a" d="M40.9,45.645a4.346,4.346,0,0,1-8.679,0H26.9a2.9,2.9,0,1,1,0-5.795s0-5.8,0-5.8a9.661,9.661,0,0,1,6.278-9.05v-.127a3.38,3.38,0,0,1,6.761,0v.127a9.662,9.662,0,0,1,6.278,9.05V39.85a2.9,2.9,0,1,1,0,5.8Zm-1.937,0H34.153a2.415,2.415,0,0,0,4.805,0ZM34.409,26.631a7.728,7.728,0,0,0-5.58,7.424V39.85A1.933,1.933,0,0,1,26.9,41.782a.966.966,0,1,0,0,1.932H46.209a.966.966,0,1,0,0-1.932,1.929,1.929,0,0,1-1.931-1.932V34.055a7.729,7.729,0,0,0-5.58-7.424l-.7-.2V24.878a1.449,1.449,0,0,0-2.9,0v1.551Z" transform="translate(-24 -21.5)"/></g></g></svg>